<svg xmlns="http://www.w3.org/2000/svg">
<!-- Изображения для меню -->
  <symbol id="menu-icon-burger">
    <svg aria-hidden="true" focusable="false" width="24" height="20" viewBox="0 0 24 20" >
      <path d="M24 0H0V4H24V0Z" />
      <path d="M24 8H0V12H24V8Z" />
      <path d="M24 16H0V20H24V16Z" />
    </svg>
  </symbol>

  <symbol id="menu-icon-cross">
    <svg aria-hidden="true" focusable="false" width="26" height="25" viewBox="0 0 26 25">
      <path d="M26 3.15315L22.7207 0L13 9.34685L3.27928 0L0 3.15315L9.72072 12.5L0 21.8468L3.27928 25L13 15.6532L22.7207 25L26 21.8468L16.2793 12.5L26 3.15315Z" />
    </svg>
  </symbol>
<!-- Изображения для преимуществ -->
  <symbol id="advantages-icon-house">
  <svg width="75" height="72" viewBox="0 0 75 72" fill="none">
    <path fill-rule="evenodd" clip-rule="evenodd" fill="#81B3D2" d="M72.8916 39.1823L75 37.0939L65.0602 27.2486V0.39779H51.2048V13.5249L37.4498 0L0 37.1934L2.10843 39.2818L9.93976 31.5249V69.116H6.0241V72H70.1807V69.116H65.0602V31.4254L72.8916 39.1823ZM54.1165 3.38122H62.0482V24.3646L54.1165 16.5083V3.38122ZM62.0482 69.0166H12.9518V28.5414L37.4498 4.1768L62.0482 28.5414V69.0166ZM30.1206 64.5414H46.1849V40.7734H30.1206V64.5414ZM43.1728 61.6574H33.0323V43.6574H43.1728V61.6574ZM37.8515 35.3039C33.6347 35.3039 30.1206 31.8232 30.1206 27.547C30.1206 23.2707 33.5343 19.8895 37.8515 19.8895C42.1688 19.8895 45.6829 23.2707 45.6829 27.547C45.6829 31.8232 42.1688 35.3039 37.8515 35.3039ZM42.8716 27.547C42.8716 24.7625 40.5624 22.5746 37.8515 22.5746C35.1407 22.5746 32.8315 24.8619 32.8315 27.547C32.8315 30.3315 35.1407 32.5194 37.8515 32.5194C40.6628 32.5194 42.8716 30.2321 42.8716 27.547ZM20.0803 40.7734H17.0683V44.6519H20.0803V40.7734ZM23.0924 40.7734H26.1044V44.6519H23.0924V40.7734ZM20.0803 46.7404H17.0683V50.6188H20.0803V46.7404ZM23.0924 46.7404H26.1044V50.6188H23.0924V46.7404ZM52.2088 40.7734H49.1968V44.6519H52.2088V40.7734ZM55.2209 40.7734H58.2329V44.6519H55.2209V40.7734ZM52.2088 46.7404H49.1968V50.6188H52.2088V46.7404ZM55.2209 46.7404H58.2329V50.6188H55.2209V46.7404Z"/>
    </svg>
  </symbol>

  <symbol id="advantages-icon-food">
  <svg width="76" height="69" viewBox="0 0 76 69">
    <path fill-rule="evenodd" clip-rule="evenodd" fill="#81B3D2" d="M70.5314 30.3747L70.5314 30.3739C70.5547 29.5459 70.5862 28.4289 70.5144 28.1408C69.8163 12.5181 55.4541 0 37.8005 0C20.147 0 5.68504 12.5181 4.98688 28.1408V31.1451H70.5144C70.5144 30.9766 70.5223 30.6976 70.5314 30.3747ZM37.8005 3.00435C53.7585 3.00435 66.9239 14.2206 67.5223 28.1408H7.979C8.67717 14.2206 21.8425 3.00435 37.8005 3.00435ZM21.2441 42.8621L15.8583 38.8563L10.3727 42.8621L3.9895 38.1553L5.78478 35.7518L10.3727 39.0566L15.8583 35.0508L21.2441 39.0566L26.7297 35.0508L32.2152 39.0566L37.7008 35.0508L43.0866 39.0566L48.5722 35.0508L54.0577 39.0566L59.5433 35.0508L65.0289 39.0566L69.6168 35.7518L71.3123 38.1553L65.0289 42.8621L59.5433 38.8563L54.0577 42.8621L48.5722 38.8563L43.0866 42.8621L37.7008 38.8563L32.2152 42.8621L26.7297 38.8563L21.2441 42.8621ZM4.28871 46.0667H71.7113C74.105 46.0667 76 48.0696 76 50.2727V53.7778C76 56.1813 74.0053 58.0841 71.7113 58.0841H70.7139V59.0855C70.7139 64.4934 66.3255 68.9999 60.8399 68.9999H15.1601C9.77428 68.9999 5.28609 64.5935 5.28609 59.0855V58.0841H4.28871C1.89501 58.0841 0 56.1813 0 53.878V50.3729C0 48.0696 1.89501 46.0667 4.28871 46.0667ZM60.9396 65.9955C64.7297 65.9955 67.8215 62.891 67.8215 59.0855V58.0841H8.17848V59.0855C8.17848 62.891 11.2703 65.9955 15.0604 65.9955H60.9396ZM71.7113 55.0797C72.4095 55.0797 73.0079 54.4788 73.0079 53.7778H73.1076V50.3729C73.1076 49.6719 72.5092 49.071 71.811 49.071H4.28871C3.59055 49.071 2.99213 49.6719 2.99213 50.2727V53.7778C2.99213 54.4788 3.59055 55.0797 4.28871 55.0797H71.7113ZM39.895 15.6228C39.895 16.7289 39.0019 17.6257 37.9003 17.6257C36.7986 17.6257 35.9055 16.7289 35.9055 15.6228C35.9055 14.5166 36.7986 13.6199 37.9003 13.6199C39.0019 13.6199 39.895 14.5166 39.895 15.6228ZM29.9213 12.6184C31.0229 12.6184 31.916 11.7216 31.916 10.6155C31.916 9.50928 31.0229 8.61255 29.9213 8.61255C28.8196 8.61255 27.9265 9.50928 27.9265 10.6155C27.9265 11.7216 28.8196 12.6184 29.9213 12.6184ZM47.874 10.6155C47.874 11.7216 46.9809 12.6184 45.8793 12.6184C44.7776 12.6184 43.8845 11.7216 43.8845 10.6155C43.8845 9.50928 44.7776 8.61255 45.8793 8.61255C46.9809 8.61255 47.874 9.50928 47.874 10.6155Z"/>
    </svg>
  </symbol>

  <symbol id="advantages-icon-souvenirs">
  <svg width="63" height="75" viewBox="0 0 63 75">
    <path fill="#81B3D2" d="M60.2 22.1167H60.1H35.8C49.4 15.3189 50.5 11.0202 50 8.62098C48.9 4.72221 44.4 1.72316 40.2 3.32266C34.7 5.42199 33.2 13.6194 31.7 19.5175C29.8 13.5194 28 5.92183 23.7 2.02307C22.5 0.923414 20.7 -0.176239 18 0.0236982C14 0.423572 8.3 5.32202 10.7 10.8203C12.9 16.1186 20.2 19.5175 25.1 22.2167H2.8C1.2 22.2167 0 23.5163 0 25.0158V36.2123C0 37.8118 1.3 39.0114 2.8 39.0114H3.1V75H60.1V39.0114H60.2C61.8 39.0114 63 37.7118 63 36.2123V25.0158C63 23.4163 61.7 22.1167 60.2 22.1167ZM41.8 5.82187C43.9 5.52196 46.7 7.12146 47 9.02085C47.4 11.72 43.7 14.2192 42 15.3189C39.5 17.0183 37.1 17.918 34.8 19.3176C35.6 15.6188 37.3 6.42168 41.8 5.82187ZM19.2 15.6188C17 14.1192 12.8 11.2202 12.9 7.9212C13 4.32234 18.6 1.42326 21.6 4.1224C25.4 7.42136 27.2 15.1189 28.6 20.5172C25.4 18.9177 22.4 17.7181 19.2 15.6188ZM25.1 72.0009H6V39.0114H25.1V72.0009ZM25.1 36.0123H3V25.1158H25.1V36.0123ZM35.1 72.0009H28V25.1158H35.1V72.0009ZM57.1 72.0009H38.1V39.0114H57.2V72.0009H57.1ZM60 36.0123H38.1V25.1158H60V36.0123Z"/>
    </svg>
  </symbol>

<!-- Изображения для каталога и видео -->
  <symbol id="icon-like">
    <svg aria-hidden="true" focusable="false" width="22" height="20"  viewBox="0 0 22 20" >
      <path d="M12.4 3.6L11.8 6.5L11.2 9H13.7H19.9V11C19.9 11 19.9 11 19.9 11.1L17 18H8V8L12.4 3.6ZM2 10V18V10ZM13.2 0L6.6 6.6C6.2 6.9 6 7.4 6 8V18C6 19.1 6.9 20 8 20H17C17.8 20 18.5 19.5 18.8 18.8L21.8 11.7C21.9 11.5 21.9 11.2 21.9 11V9H22C22 7.9 21.1 7 20 7H13.7L14.7 2.4V2.1C14.7 1.7 14.5 1.3 14.3 1L13.2 0ZM4 8H0V20H4V8Z" />
    </svg>
  </symbol>

    <symbol id="icon-play">
    <svg aria-hidden="true" focusable="false" width="48" height="54" viewBox="0 0 48 54">
      <path d="M48 27L0 54L2.42273e-06 0L48 27Z" />
    </svg>
  </symbol>

<!-- Изображения для подвала и социальных сетей -->
  <symbol id="social-icon-vkontakte">
    <svg aria-hidden="true" focusable="false" width="24" height="14" viewBox="0 0 24 14" >
      <path d="M23.45 0.948C23.616 0.402 23.45 0 22.655 0H20.03C19.362 0 19.054 0.347 18.887 0.73C18.887 0.73 17.552 3.926 15.661 6.002C15.049 6.604 14.771 6.795 14.437 6.795C14.27 6.795 14.019 6.604 14.019 6.057V0.948C14.019 0.292 13.835 0 13.279 0H9.151C8.734 0 8.483 0.304 8.483 0.593C8.483 1.214 9.429 1.358 9.526 3.106V6.904C9.526 7.737 9.373 7.888 9.039 7.888C8.149 7.888 5.984 4.677 4.699 1.003C4.45 0.288 4.198 0 3.527 0H0.9C0.15 0 0 0.347 0 0.73C0 1.412 0.89 4.8 4.145 9.281C6.315 12.341 9.37 14 12.153 14C13.822 14 14.028 13.632 14.028 12.997V10.684C14.028 9.947 14.186 9.8 14.715 9.8C15.105 9.8 15.772 9.992 17.33 11.467C19.11 13.216 19.403 14 20.405 14H23.03C23.78 14 24.156 13.632 23.94 12.904C23.702 12.18 22.852 11.129 21.725 9.882C21.113 9.172 20.195 8.407 19.916 8.024C19.527 7.533 19.638 7.314 19.916 6.877C19.916 6.877 23.116 2.451 23.449 0.948H23.45Z" />
      </svg>
  </symbol>

  <symbol id="social-icon-telegram">
    <svg aria-hidden="true" focusable="false" width="22" height="18" viewBox="0 0 22 18" >
      <path d="M21.4391 1.62225L18.2704 16.566C18.0311 17.6205 17.4079 17.883 16.5221 17.3865L11.6936 13.8285L9.36415 16.0695C9.10615 16.3275 8.8909 16.5427 8.39365 16.5427L8.7409 11.6257L17.6891 3.54C18.0784 3.1935 17.6044 3.00075 17.0846 3.348L6.02215 10.314L1.25965 8.823C0.223899 8.49975 0.205149 7.78725 1.47565 7.29L20.1034 0.113249C20.9659 -0.210001 21.7204 0.305249 21.4391 1.623V1.62225Z" />
    </svg>
  </symbol>

  <symbol id="social-icon-youtube">
     <svg aria-hidden="true" focusable="false" width="20" height="14"  viewBox="0 0 20 14">
        <path d="M17.1813 0H2.81331C1.30618 0 0 1.3 0 2.8V11.1C0 12.7 1.30618 14 2.81331 14H17.1813C18.7889 14 19.9946 12.7 19.9946 11.2V2.8C20.095 1.3 18.7889 0 17.1813 0ZM7.03326 10.4V3.6L13.8656 7L7.03326 10.4Z" />
      </svg>
  </symbol>

  <symbol id="logo-htmlacademy">
     <svg aria-hidden="true" focusable="false" width="32" height="32" viewBox="0 0 32 32">
        <path d="M16.1338 2H16.0446L4 3.19062V24.1965L16.0446 31L28 24.1965V3.19062L16.1338 2ZM26.3048 12.2903L16.0446 6.50733V6.42229H15.9554L15.8662 6.33724V6.42229L5.69517 12.2903V4.63636L15.9554 3.61584L26.3048 4.63636V12.2903ZM15.9554 7.78299L26.2156 13.4809L22.2007 15.6921L15.8662 12.1202V13.3109L21.1301 16.2874L20.3271 16.7126L15.8662 14.1613V15.3519L19.2565 17.3079L18.5428 17.7331L15.8662 16.2023V17.393L17.5613 18.3284L15.9554 19.2639L5.78439 13.566L15.9554 7.78299ZM5.69517 14.8416L15.8662 20.6246V21.4751L8.81784 17.478V18.6686L15.9554 22.7507V23.6862L8.81784 19.6891V20.8798L15.9554 24.9619L23.1822 20.7947V16.3724L26.2156 14.6716V23.176L15.9554 29.044L5.69517 23.261V14.8416Z" />
    </svg>
  </symbol>
</svg>
