<svg width="63" height="75" viewBox="0 0 63 75" fill="none" xmlns="http://www.w3.org/2000/svg">
<path d="M60.2 22.1167H60.1H35.8C49.4 15.3189 50.5 11.0202 50 8.62098C48.9 4.72221 44.4 1.72316 40.2 3.32266C34.7 5.42199 33.2 13.6194 31.7 19.5175C29.8 13.5194 28 5.92183 23.7 2.02307C22.5 0.923414 20.7 -0.176239 18 0.0236982C14 0.423572 8.3 5.32202 10.7 10.8203C12.9 16.1186 20.2 19.5175 25.1 22.2167H2.8C1.2 22.2167 0 23.5163 0 25.0158V36.2123C0 37.8118 1.3 39.0114 2.8 39.0114H3.1V75H60.1V39.0114H60.2C61.8 39.0114 63 37.7118 63 36.2123V25.0158C63 23.4163 61.7 22.1167 60.2 22.1167ZM41.8 5.82187C43.9 5.52196 46.7 7.12146 47 9.02085C47.4 11.72 43.7 14.2192 42 15.3189C39.5 17.0183 37.1 17.918 34.8 19.3176C35.6 15.6188 37.3 6.42168 41.8 5.82187ZM19.2 15.6188C17 14.1192 12.8 11.2202 12.9 7.9212C13 4.32234 18.6 1.42326 21.6 4.1224C25.4 7.42136 27.2 15.1189 28.6 20.5172C25.4 18.9177 22.4 17.7181 19.2 15.6188ZM25.1 72.0009H6V39.0114H25.1V72.0009ZM25.1 36.0123H3V25.1158H25.1V36.0123ZM35.1 72.0009H28V25.1158H35.1V72.0009ZM57.1 72.0009H38.1V39.0114H57.2V72.0009H57.1ZM60 36.0123H38.1V25.1158H60V36.0123Z" fill="#81B3D2"/>
</svg>
