<svg width="76" height="69" viewBox="0 0 76 69" fill="none" xmlns="http://www.w3.org/2000/svg">
<path fill-rule="evenodd" clip-rule="evenodd" d="M70.5314 30.3747L70.5314 30.3739C70.5547 29.5459 70.5862 28.4289 70.5144 28.1408C69.8163 12.5181 55.4541 0 37.8005 0C20.147 0 5.68504 12.5181 4.98688 28.1408V31.1451H70.5144C70.5144 30.9766 70.5223 30.6976 70.5314 30.3747ZM37.8005 3.00435C53.7585 3.00435 66.9239 14.2206 67.5223 28.1408H7.979C8.67717 14.2206 21.8425 3.00435 37.8005 3.00435ZM21.2441 42.8621L15.8583 38.8563L10.3727 42.8621L3.9895 38.1553L5.78478 35.7518L10.3727 39.0566L15.8583 35.0508L21.2441 39.0566L26.7297 35.0508L32.2152 39.0566L37.7008 35.0508L43.0866 39.0566L48.5722 35.0508L54.0577 39.0566L59.5433 35.0508L65.0289 39.0566L69.6168 35.7518L71.3123 38.1553L65.0289 42.8621L59.5433 38.8563L54.0577 42.8621L48.5722 38.8563L43.0866 42.8621L37.7008 38.8563L32.2152 42.8621L26.7297 38.8563L21.2441 42.8621ZM4.28871 46.0667H71.7113C74.105 46.0667 76 48.0696 76 50.2727V53.7778C76 56.1813 74.0053 58.0841 71.7113 58.0841H70.7139V59.0855C70.7139 64.4934 66.3255 68.9999 60.8399 68.9999H15.1601C9.77428 68.9999 5.28609 64.5935 5.28609 59.0855V58.0841H4.28871C1.89501 58.0841 0 56.1813 0 53.878V50.3729C0 48.0696 1.89501 46.0667 4.28871 46.0667ZM60.9396 65.9955C64.7297 65.9955 67.8215 62.891 67.8215 59.0855V58.0841H8.17848V59.0855C8.17848 62.891 11.2703 65.9955 15.0604 65.9955H60.9396ZM71.7113 55.0797C72.4095 55.0797 73.0079 54.4788 73.0079 53.7778H73.1076V50.3729C73.1076 49.6719 72.5092 49.071 71.811 49.071H4.28871C3.59055 49.071 2.99213 49.6719 2.99213 50.2727V53.7778C2.99213 54.4788 3.59055 55.0797 4.28871 55.0797H71.7113ZM39.895 15.6228C39.895 16.7289 39.0019 17.6257 37.9003 17.6257C36.7986 17.6257 35.9055 16.7289 35.9055 15.6228C35.9055 14.5166 36.7986 13.6199 37.9003 13.6199C39.0019 13.6199 39.895 14.5166 39.895 15.6228ZM29.9213 12.6184C31.0229 12.6184 31.916 11.7216 31.916 10.6155C31.916 9.50928 31.0229 8.61255 29.9213 8.61255C28.8196 8.61255 27.9265 9.50928 27.9265 10.6155C27.9265 11.7216 28.8196 12.6184 29.9213 12.6184ZM47.874 10.6155C47.874 11.7216 46.9809 12.6184 45.8793 12.6184C44.7776 12.6184 43.8845 11.7216 43.8845 10.6155C43.8845 9.50928 44.7776 8.61255 45.8793 8.61255C46.9809 8.61255 47.874 9.50928 47.874 10.6155Z" fill="#81B3D2"/>
</svg>
