<svg width="75" height="72" viewBox="0 0 75 72" fill="none" xmlns="http://www.w3.org/2000/svg">
<path fill-rule="evenodd" clip-rule="evenodd" d="M72.8916 39.1823L75 37.0939L65.0602 27.2486V0.39779H51.2048V13.5249L37.4498 0L0 37.1934L2.10843 39.2818L9.93976 31.5249V69.116H6.0241V72H70.1807V69.116H65.0602V31.4254L72.8916 39.1823ZM54.1165 3.38122H62.0482V24.3646L54.1165 16.5083V3.38122ZM62.0482 69.0166H12.9518V28.5414L37.4498 4.1768L62.0482 28.5414V69.0166ZM30.1206 64.5414H46.1849V40.7734H30.1206V64.5414ZM43.1728 61.6574H33.0323V43.6574H43.1728V61.6574ZM37.8515 35.3039C33.6347 35.3039 30.1206 31.8232 30.1206 27.547C30.1206 23.2707 33.5343 19.8895 37.8515 19.8895C42.1688 19.8895 45.6829 23.2707 45.6829 27.547C45.6829 31.8232 42.1688 35.3039 37.8515 35.3039ZM42.8716 27.547C42.8716 24.7625 40.5624 22.5746 37.8515 22.5746C35.1407 22.5746 32.8315 24.8619 32.8315 27.547C32.8315 30.3315 35.1407 32.5194 37.8515 32.5194C40.6628 32.5194 42.8716 30.2321 42.8716 27.547ZM20.0803 40.7734H17.0683V44.6519H20.0803V40.7734ZM23.0924 40.7734H26.1044V44.6519H23.0924V40.7734ZM20.0803 46.7404H17.0683V50.6188H20.0803V46.7404ZM23.0924 46.7404H26.1044V50.6188H23.0924V46.7404ZM52.2088 40.7734H49.1968V44.6519H52.2088V40.7734ZM55.2209 40.7734H58.2329V44.6519H55.2209V40.7734ZM52.2088 46.7404H49.1968V50.6188H52.2088V46.7404ZM55.2209 46.7404H58.2329V50.6188H55.2209V46.7404Z" fill="#81B3D2"/>
</svg>
