<svg width="32" height="32" fill="none" xmlns="http://www.w3.org/2000/svg"><path d="M16.134 2h-.09L4 3.19v21.007L16.045 31 28 24.197V3.19L16.134 2Zm10.17 10.29-10.26-5.783v-.085h-.089l-.089-.085v.085L5.696 12.29V4.636l10.26-1.02 10.349 1.02v7.654ZM15.956 7.783l10.26 5.698-4.014 2.211-6.335-3.572v1.19l5.264 2.977-.803.426-4.46-2.552v1.19l3.39 1.957-.714.425-2.677-1.53v1.19l1.695.935-1.606.936-10.17-5.698 10.17-5.783Zm-10.26 7.059 10.171 5.783v.85l-7.048-3.997v1.19l7.137 4.083v.935L8.818 19.69v1.19l7.137 4.083 7.227-4.167v-4.423l3.034-1.7v8.504l-10.26 5.868-10.26-5.783v-8.42Z" fill="#81B3D2"/></svg>